<svg id="svg" version="1.1" width="400" height="400" xmlns="http://www.w3.org/2000/svg" xmlns:xlink="http://www.w3.org/1999/xlink" style="display: block;"><g id="svgg"><path id="path0" d="M273.500 14.557 C 272.400 14.811,269.047 15.518,266.050 16.126 C 263.052 16.735,259.902 17.630,259.050 18.116 C 258.197 18.602,256.375 19.448,255.000 19.997 C 246.417 23.424,229.170 37.975,227.439 43.250 C 227.124 44.212,226.500 45.000,226.054 45.000 C 225.608 45.000,224.651 46.462,223.928 48.250 C 223.205 50.038,222.322 51.725,221.966 52.000 C 218.356 54.789,215.577 69.032,215.589 84.685 C 215.599 98.414,215.366 100.954,214.051 101.417 C 213.198 101.717,210.137 103.321,207.250 104.981 C 197.103 110.816,191.462 113.941,187.500 115.921 C 185.300 117.021,179.900 119.944,175.500 122.418 C 171.100 124.891,165.971 127.614,164.102 128.468 L 160.704 130.022 154.602 124.275 C 151.246 121.115,148.275 118.281,148.000 117.978 C 146.649 116.487,136.816 110.551,131.427 107.973 C 95.358 90.714,48.186 102.667,25.826 134.730 C 23.997 137.354,22.254 139.725,21.953 140.000 C 21.288 140.607,16.788 149.994,14.522 155.500 C 8.005 171.335,7.684 201.806,13.892 215.500 C 14.390 216.600,15.381 219.075,16.093 221.000 C 20.482 232.865,36.936 252.551,47.500 258.575 C 50.250 260.143,52.650 261.780,52.833 262.213 C 53.017 262.646,53.584 263.000,54.094 263.000 C 54.604 263.000,56.999 263.929,59.416 265.065 C 89.879 279.385,132.943 271.966,156.582 248.327 L 159.052 245.857 165.776 249.592 C 169.474 251.647,172.725 253.592,173.000 253.914 C 173.275 254.236,174.625 255.144,176.000 255.930 C 189.349 263.566,192.546 265.517,192.833 266.203 C 193.017 266.642,193.618 267.000,194.170 267.000 C 194.722 267.000,197.047 268.309,199.337 269.910 C 204.996 273.865,217.016 281.000,218.019 281.000 C 218.467 281.000,218.983 281.364,219.167 281.809 C 219.350 282.254,222.200 284.144,225.500 286.009 C 228.800 287.874,233.525 290.773,236.000 292.450 C 241.308 296.047,242.961 297.069,249.150 300.575 L 253.800 303.209 253.272 312.854 C 252.042 335.344,267.380 368.177,281.160 372.551 C 282.172 372.872,283.000 373.481,283.000 373.904 C 283.000 375.609,299.952 382.924,307.500 384.476 C 320.893 387.230,338.270 385.939,347.651 381.493 C 349.384 380.672,351.213 380.000,351.715 380.000 C 355.227 380.000,371.104 367.145,376.933 359.582 C 407.351 320.117,387.265 261.705,339.054 249.426 C 331.772 247.571,306.368 247.691,303.883 249.592 C 303.122 250.174,300.552 251.207,298.171 251.889 C 295.790 252.570,290.600 255.044,286.638 257.386 C 278.402 262.256,279.302 262.339,268.613 255.711 C 264.151 252.943,258.700 249.587,256.500 248.252 C 238.661 237.429,230.264 232.396,222.500 227.873 C 217.550 224.989,213.275 222.374,213.000 222.062 C 211.775 220.671,200.940 214.002,184.468 204.500 L 181.001 202.500 181.610 193.500 C 182.147 185.559,181.595 178.668,179.397 165.851 C 178.801 162.377,178.956 162.115,182.636 160.377 C 184.761 159.374,190.700 156.178,195.834 153.276 C 200.967 150.374,205.547 148.000,206.012 148.000 C 206.477 148.000,207.472 147.438,208.223 146.750 C 208.974 146.063,211.593 144.451,214.044 143.169 C 216.495 141.886,222.225 138.844,226.777 136.408 C 233.188 132.978,235.177 132.298,235.598 133.394 C 236.973 136.978,251.869 145.667,263.224 149.509 C 270.038 151.814,292.152 153.243,297.000 151.692 C 297.825 151.428,301.650 150.246,305.500 149.065 C 309.350 147.884,314.300 145.823,316.500 144.485 C 318.700 143.147,321.846 141.297,323.492 140.375 C 332.883 135.112,348.979 114.017,348.996 106.950 C 348.998 106.098,349.429 104.971,349.953 104.447 C 355.260 99.140,352.087 56.677,346.034 52.000 C 345.678 51.725,344.795 50.038,344.072 48.250 C 343.349 46.462,342.392 45.000,341.946 45.000 C 341.500 45.000,340.876 44.212,340.561 43.250 C 338.835 37.990,321.699 23.520,313.000 19.977 C 311.625 19.417,309.600 18.539,308.500 18.027 C 302.669 15.309,279.975 13.059,273.500 14.557 M293.540 51.547 C 296.818 52.398,299.650 53.523,299.833 54.047 C 300.017 54.571,300.709 55.000,301.371 55.000 C 302.033 55.000,304.659 57.138,307.205 59.750 C 326.610 79.659,315.750 112.078,288.380 115.946 C 257.100 120.368,238.549 82.574,260.795 59.750 C 263.341 57.138,265.967 55.000,266.629 55.000 C 267.291 55.000,267.983 54.568,268.167 54.039 C 269.297 50.781,284.746 49.264,293.540 51.547 M111.500 137.700 C 112.600 138.296,116.200 140.121,119.500 141.755 C 164.217 163.890,149.220 233.241,98.962 236.733 C 89.488 237.391,72.052 233.508,69.000 230.059 C 68.725 229.749,66.631 228.227,64.347 226.678 C 62.062 225.129,59.137 222.472,57.847 220.773 C 56.556 219.073,55.036 217.192,54.469 216.592 C 39.889 201.154,42.425 167.707,59.480 150.483 C 65.458 144.446,75.697 138.533,83.500 136.610 C 87.112 135.721,109.454 136.590,111.500 137.700 M336.094 286.230 C 357.444 296.180,362.287 323.794,345.573 340.271 C 324.066 361.474,289.000 346.133,289.000 315.522 C 289.000 311.450,289.415 307.861,289.923 307.548 C 290.431 307.234,291.143 305.626,291.506 303.974 C 294.953 288.279,319.516 278.504,336.094 286.230 " stroke="none" fill="#ffffff" fill-rule="evenodd"></path></g></svg>
